<?xml version="1.0" encoding="UTF-8" standalone="no"?>
<svg
   aria-hidden="true"
   role="img"
   class="iconify iconify--logos"
   width="31.88"
   height="32"
   preserveAspectRatio="xMidYMid meet"
   viewBox="0 0 256 257"
   version="1.1"
   id="svg6"
   sodipodi:docname="microblog.svg"
   xml:space="preserve"
   inkscape:version="1.4.2 (ebf0e940d0, 2025-05-08)"
   xmlns:inkscape="http://www.inkscape.org/namespaces/inkscape"
   xmlns:sodipodi="http://sodipodi.sourceforge.net/DTD/sodipodi-0.dtd"
   xmlns="http://www.w3.org/2000/svg"
   xmlns:svg="http://www.w3.org/2000/svg"><sodipodi:namedview
     id="namedview6"
     pagecolor="#ffffff"
     bordercolor="#000000"
     borderopacity="0.25"
     inkscape:showpageshadow="2"
     inkscape:pageopacity="0.0"
     inkscape:pagecheckerboard="0"
     inkscape:deskcolor="#d1d1d1"
     inkscape:zoom="22.170177"
     inkscape:cx="17.185248"
     inkscape:cy="16.147819"
     inkscape:window-width="1920"
     inkscape:window-height="1128"
     inkscape:window-x="0"
     inkscape:window-y="0"
     inkscape:window-maximized="1"
     inkscape:current-layer="svg6" /><defs
     id="defs5"><linearGradient
       id="IconifyId1813088fe1fbc01fb466"
       x1="-.828%"
       x2="57.636%"
       y1="7.652%"
       y2="78.411%"><stop
         offset="0%"
         stop-color="#41D1FF"
         id="stop1" /><stop
         offset="100%"
         stop-color="#BD34FE"
         id="stop2" /></linearGradient><linearGradient
       id="IconifyId1813088fe1fbc01fb467"
       x1="43.376%"
       x2="50.316%"
       y1="2.242%"
       y2="89.03%"><stop
         offset="0%"
         stop-color="#FFEA83"
         id="stop3" /><stop
         offset="8.333%"
         stop-color="#FFDD35"
         id="stop4" /><stop
         offset="100%"
         stop-color="#FFA800"
         id="stop5" /></linearGradient></defs><path
     id="rect6"
     style="display:inline;fill:#666666;stroke-width:8.09339;opacity:1"
     d="M 17.001227 8.3292847 C 8.9736631 8.3292847 2.5230161 14.795618 2.5230161 22.823181 L 2.5230161 183.30701 C 2.5230161 191.33457 8.9736631 197.78522 17.001227 197.78522 L 154.61481 197.78522 L 244.87226 250.31775 L 234.53516 197.78522 L 239.78998 197.78522 C 247.81755 197.78522 254.28388 191.33457 254.28388 183.30701 L 254.28388 22.823181 C 254.28388 14.795618 247.81755 8.3292847 239.78998 8.3292847 L 17.001227 8.3292847 z " /><path
     style="font-weight:bold;font-size:96.375px;font-family:Roboto;-inkscape-font-specification:'Roboto Bold';fill:#f9f9f9;stroke-width:8.03125"
     d="m 42.833892,163.73911 3.388183,-19.29383 h -9.082214 l -3.388183,19.29383 h -8.611634 l 3.388184,-19.29383 h -10.68219 v -8.14105 h 12.140991 l 2.305847,-13.3645 h -10.91748 v -8.14105 h 12.376282 l 3.435241,-19.576176 h 8.564575 l -3.435241,19.576176 h 9.129272 L 54.880767,95.222504 H 63.4924 l -3.435242,19.576176 h 10.305726 v 8.14105 H 58.598357 l -2.305847,13.3645 h 10.493958 v 8.14105 H 54.833709 l -3.388184,19.29383 z m -4.282288,-27.43488 h 9.129273 l 2.305847,-13.3645 H 40.90451 Z"
     id="text7"
     aria-label="#" /><path
     style="font-weight:bold;font-size:188.093px;font-family:Roboto;-inkscape-font-specification:'Roboto Bold';fill:#f9f9f9;stroke-width:15.6744"
     d="m 130.37708,162.65234 6.61264,-37.65533 h -17.72556 l -6.61264,37.65533 H 95.84438 l 6.61264,-37.65533 H 81.608825 v -15.88872 h 23.695315 l 4.50027,-26.083208 H 88.496997 V 67.136366 H 112.65152 L 119.356,28.929975 h 16.7153 l -6.70449,38.206391 h 17.81741 l 6.70448,-38.206391 h 16.80714 l -6.70448,38.206391 h 20.11346 v 15.888716 h -22.96057 l -4.50028,26.083208 h 20.48083 v 15.88872 h -23.32794 l -6.61264,37.65533 z m -8.35765,-53.54405 h 17.8174 l 4.50028,-26.083208 h -17.72556 z"
     id="text8"
     aria-label="#" /><path
     style="font-weight:bold;font-size:96.375px;font-family:Roboto;-inkscape-font-specification:'Roboto Bold';fill:#f9f9f9;stroke-width:8.03125"
     d="m 211.28232,168.81067 3.38818,-19.29382 h -9.08221 l -3.38819,19.29382 h -8.61163 l 3.38818,-19.29382 h -10.68219 v -8.14106 h 12.141 l 2.30584,-13.3645 h -10.91748 v -8.14105 h 12.37628 l 3.43525,-19.57617 h 8.56457 l -3.43524,19.57617 h 9.12927 l 3.43524,-19.57617 h 8.61164 l -3.43525,19.57617 h 10.30573 v 8.14105 h -11.76453 l -2.30584,13.3645 h 10.49395 v 8.14106 h -11.95275 l -3.38819,19.29382 z m -4.28229,-27.43488 h 9.12927 l 2.30585,-13.3645 h -9.08221 z"
     id="text9"
     aria-label="#" /></svg>
